<svg xmlns="http://www.w3.org/2000/svg" xmlns:xlink="http://www.w3.org/1999/xlink" viewBox="0 0 80 80" version="1.1" x="0px" y="0px"><title>Elephant</title><desc>Created with Sketch.</desc><g stroke="none" stroke-width="1" fill="none" fill-rule="evenodd"><g fill="#000000"><path d="M26.4626866,54.8571429 L27.5671642,62.6071429 L22.0447761,63.7142857 L17.6268657,62.6071429 L11,51.5357143 L13.2089552,31.6071429 L20.9402985,21.6428571 L30.880597,20.5357143 L40.8208955,15 L54.0746269,21.6428571 L50.761194,24.9642857 C60.3333333,26.4404762 66.5920398,27.547619 69.5373134,28.2857143 C73.9552239,29.3928571 81.6865672,34.9285714 82.7910448,36.0357143 C83.8955224,37.1428571 83.3693901,42.2316841 82.7910448,46 C82.4054812,48.5122106 81.6691628,50.3574487 80.5820896,51.5357143 L85,77 L75.0597015,77 L77.2686567,74.7857143 L68.4328358,55.9642857 L44.1343284,59.2857143 L35.2985075,77 L25.358209,77 L28.6716418,71.4642857 L35.2985075,48.2142857 L30.880597,43.7857143 L20.9402985,46 L19.8358209,54.8571429 L23.1492537,58.1785714 L26.4626866,54.8571429 Z M42,67.9333333 L45.3,61.1333333 L49.7,60 L53,77 L42,77 L44.2,75.8666667 L42,67.9333333 Z M63.2,60.2352941 L66.5,58 L72,67.5 L70.9,77 L61,77 L63.2,73.6470588 L63.2,60.2352941 Z"/></g></g></svg>