<svg xmlns="http://www.w3.org/2000/svg" xmlns:xlink="http://www.w3.org/1999/xlink" viewBox="0 0 80 80" version="1.1" x="0px" y="0px"><title>Elk</title><desc>Created with Sketch.</desc><g stroke="none" stroke-width="1" fill="none" fill-rule="evenodd"><g fill="#000000"><path d="M14,39 L9,35 L10,30 L21,27 L22,24 L31,22 C33,24 34.6666667,25 36,25 C38,25 42,22 45,22 C48,22 51,26 54,27 C57,28 70.8458695,25.3433152 76,27 C79.436087,28.1044565 81.436087,31.1044565 82,36 L80,47 L82,60 L80,80 L75,80 L77,76 L78,61 L67,49 L47,50 L45,66 L45,80 L40,80 L43,77 L42,63 L33,42 L27,43 L17,36 L14,39 Z M49,52 L54,52 L52,64 L52,80 L47,80 L49,76 L49,63 L48,60 L49,52 Z M67,53 L74,60 L71,80 L66,80 L68,77 L70,61 L67,53 Z M20,24 L14,22 L14,20 L19,22 L15,17 L15,14 L17,16 L21,21 L22,16 L23,14 L24,17 L24,19 L27,19 L28,12 L30,13 L30,18 L32,16 L34,12 L37,12 L34,18 L35,20 L41,17 L42,12 L45,12 L43,16 L47,17 L35,23 L32,20 L28,21 L23,22 L20,24 Z"/></g></g></svg>